<svg xmlns="http://www.w3.org/2000/svg" width="80" height="40" viewBox="0 0 80 40">
  <rect width="80" height="40" rx="5" fill="#000000" fill-opacity="0.1"/>
  <path d="M25,20 L25,15 L28,15 C29.5,15 31,16 31,17.5 C31,19 29.5,20 28,20 L25,20 Z" fill="#4285F4"/>
  <path d="M37,20 L37,15 L40,15 L40,16 C40.5,15.5 41.5,15 42.5,15 C44.5,15 46,16.5 46,17.5 C46,18.5 44.5,20 42.5,20 C41.5,20 40.5,19.5 40,19 L40,20 L37,20 Z" fill="#EA4335"/>
  <path d="M52,20 L52,15 L55,15 L55,20 L52,20 Z M52,14 L52,12 L55,12 L55,14 L52,14 Z" fill="#FBBC05"/>
  <path d="M32,20 L32,12 L35,12 L35,16 C35.5,15.5 36.5,15 37.5,15 C39.5,15 41,16.5 41,17.5 C41,18.5 39.5,20 37.5,20 C36.5,20 35.5,19.5 35,19 L35,20 L32,20 Z" fill="#34A853"/>
</svg>