<svg xmlns="http://www.w3.org/2000/svg" width="60" height="60" viewBox="0 0 60 60">
  <!-- Circle Background -->
  <circle cx="30" cy="30" r="28" fill="#0A0A0A" stroke="#FFD700" stroke-width="2"/>
  
  <!-- Rulebook Icon -->
  <rect x="18" y="15" width="24" height="30" rx="2" fill="none" stroke="#FFD700" stroke-width="2"/>
  
  <!-- Book Pages -->
  <line x1="30" y1="15" x2="30" y2="45" stroke="#FFD700" stroke-width="1"/>
  
  <!-- Text Lines -->
  <line x1="22" y1="22" x2="28" y2="22" stroke="#FFD700" stroke-width="1"/>
  <line x1="22" y1="27" x2="28" y2="27" stroke="#FFD700" stroke-width="1"/>
  <line x1="22" y1="32" x2="28" y2="32" stroke="#FFD700" stroke-width="1"/>
  <line x1="22" y1="37" x2="28" y2="37" stroke="#FFD700" stroke-width="1"/>
  
  <line x1="32" y1="22" x2="38" y2="22" stroke="#FFD700" stroke-width="1"/>
  <line x1="32" y1="27" x2="38" y2="27" stroke="#FFD700" stroke-width="1"/>
  <line x1="32" y1="32" x2="38" y2="32" stroke="#FFD700" stroke-width="1"/>
  <line x1="32" y1="37" x2="38" y2="37" stroke="#FFD700" stroke-width="1"/>
  
  <!-- Checkmark -->
  <path d="M20,50 L25,55 L40,40" fill="none" stroke="#FFD700" stroke-width="2" stroke-linecap="round" stroke-linejoin="round"/>
  
  <!-- Decorative Elements -->
  <circle cx="30" cy="30" r="24" fill="none" stroke="#FFD700" stroke-width="0.5" opacity="0.5"/>
  
  <!-- Shine Effect -->
  <circle cx="20" cy="20" r="10" fill="url(#shineGradient)" opacity="0.2"/>
  
  <defs>
    <linearGradient id="shineGradient" x1="0%" y1="0%" x2="100%" y2="100%">
      <stop offset="0%" stop-color="#FFFFFF" stop-opacity="0.8"/>
      <stop offset="100%" stop-color="#FFFFFF" stop-opacity="0"/>
    </linearGradient>
  </defs>
</svg>